<mxfile host="app.diagrams.net" modified="2021-01-22T09:09:53.845Z" agent="5.0 (Macintosh; Intel Mac OS X 11_1_0) AppleWebKit/537.36 (KHTML, like Gecko) Chrome/87.0.4280.141 Safari/537.36" etag="L3Y0IVqog7G4mS2jXv3c" version="14.2.6" type="github">
  <diagram id="rfyT-LtF2Pe46t2oqA69" name="第 1 页">
    <mxGraphModel dx="1426" dy="800" grid="0" gridSize="10" guides="1" tooltips="1" connect="1" arrows="1" fold="1" page="1" pageScale="1" pageWidth="827" pageHeight="1169" background="#FFFEF7" math="0" shadow="0">
      <root>
        <mxCell id="0" />
        <mxCell id="1" parent="0" />
        <mxCell id="MkXuHvyHVTgwx-db9zs0-3" value="" style="line;strokeWidth=2;html=1;fillColor=#F2CC8F;strokeColor=#E07A5F;fontColor=#393C56;sketch=1;rounded=1;labelBackgroundColor=#F4F1DE;" parent="1" vertex="1">
          <mxGeometry x="180" y="535" width="500" height="10" as="geometry" />
        </mxCell>
        <mxCell id="MkXuHvyHVTgwx-db9zs0-4" value="" style="line;strokeWidth=2;direction=south;html=1;fillColor=#F2CC8F;strokeColor=#E07A5F;fontColor=#393C56;sketch=1;rounded=1;labelBackgroundColor=#F4F1DE;" parent="1" vertex="1">
          <mxGeometry x="430" y="360" width="10" height="360" as="geometry" />
        </mxCell>
        <mxCell id="MkXuHvyHVTgwx-db9zs0-5" value="&lt;div&gt;&lt;span style=&quot;font-size: 18px ; letter-spacing: -0.1px ; font-family: &amp;quot;avenir next&amp;quot; , &amp;quot;pingfangsc&amp;quot; , &amp;quot;unito sans&amp;quot; , &amp;quot;microsoft yahei&amp;quot;&quot;&gt;&lt;font&gt;完全深度&lt;/font&gt;&lt;/span&gt;&lt;br&gt;&lt;/div&gt;" style="whiteSpace=wrap;html=1;strokeWidth=2;fillWeight=4;hachureGap=8;hachureAngle=45;fillStyle=auto;strokeColor=#E07A5F;fillColor=#F2CC8F;fontColor=#393C56;sketch=1;rounded=1;" parent="1" vertex="1">
          <mxGeometry x="245" y="430" width="130" height="60" as="geometry" />
        </mxCell>
        <mxCell id="MkXuHvyHVTgwx-db9zs0-6" value="&lt;div&gt;&lt;span style=&quot;font-size: 18px ; letter-spacing: -0.1px ; font-family: &amp;#34;avenir next&amp;#34; , &amp;#34;pingfangsc&amp;#34; , &amp;#34;unito sans&amp;#34; , &amp;#34;microsoft yahei&amp;#34;&quot;&gt;随时随地深度&lt;/span&gt;&lt;br&gt;&lt;/div&gt;" style="whiteSpace=wrap;html=1;strokeWidth=2;fillWeight=4;hachureGap=8;hachureAngle=45;fillStyle=auto;fillColor=#F2CC8F;strokeColor=#E07A5F;fontColor=#393C56;sketch=1;rounded=1;" parent="1" vertex="1">
          <mxGeometry x="490" y="596.25" width="130" height="60" as="geometry" />
        </mxCell>
        <mxCell id="MkXuHvyHVTgwx-db9zs0-8" value="&lt;div&gt;&lt;span style=&quot;font-size: 18px ; letter-spacing: -0.1px ; font-family: &amp;#34;avenir next&amp;#34; , &amp;#34;pingfangsc&amp;#34; , &amp;#34;unito sans&amp;#34; , &amp;#34;microsoft yahei&amp;#34;&quot;&gt;每日深度&lt;/span&gt;&lt;br&gt;&lt;/div&gt;" style="whiteSpace=wrap;html=1;strokeWidth=2;fillWeight=4;hachureGap=8;hachureAngle=45;fillStyle=auto;strokeColor=#E07A5F;fillColor=#F2CC8F;fontColor=#393C56;sketch=1;rounded=1;" parent="1" vertex="1">
          <mxGeometry x="490" y="430" width="130" height="60" as="geometry" />
        </mxCell>
        <mxCell id="MkXuHvyHVTgwx-db9zs0-12" value="&lt;span style=&quot;font-family: &amp;#34;avenir next&amp;#34; , &amp;#34;pingfangsc&amp;#34; , &amp;#34;unito sans&amp;#34; , &amp;#34;microsoft yahei&amp;#34; ; font-size: 18px ; letter-spacing: -0.1px&quot;&gt;双峰哲学&lt;/span&gt;" style="text;whiteSpace=wrap;html=1;align=center;fontColor=#393C56;sketch=1;rounded=1;" parent="1" vertex="1">
          <mxGeometry x="250" y="554.5" width="120" height="30" as="geometry" />
        </mxCell>
        <mxCell id="MkXuHvyHVTgwx-db9zs0-13" value="&lt;div&gt;&lt;font face=&quot;Avenir Next, PingFangSC, Unito Sans, Microsoft Yahei&quot;&gt;&lt;span style=&quot;font-size: 18px ; letter-spacing: -0.1px&quot;&gt;新闻记者哲学&lt;/span&gt;&lt;/font&gt;&lt;br&gt;&lt;/div&gt;&lt;div&gt;&lt;font face=&quot;Avenir Next, PingFangSC, Unito Sans, Microsoft Yahei&quot;&gt;&lt;span style=&quot;font-size: 18px ; letter-spacing: -0.1px&quot;&gt;&lt;br&gt;&lt;/span&gt;&lt;/font&gt;&lt;/div&gt;" style="text;whiteSpace=wrap;html=1;align=center;fontColor=#393C56;sketch=1;rounded=1;" parent="1" vertex="1">
          <mxGeometry x="500" y="555" width="120" height="30" as="geometry" />
        </mxCell>
        <mxCell id="MkXuHvyHVTgwx-db9zs0-14" value="&lt;div&gt;&lt;font face=&quot;Avenir Next, PingFangSC, Unito Sans, Microsoft Yahei&quot;&gt;&lt;span style=&quot;font-size: 18px ; letter-spacing: -0.1px&quot;&gt;节奏哲学&lt;/span&gt;&lt;/font&gt;&lt;br&gt;&lt;/div&gt;&lt;div&gt;&lt;font face=&quot;Avenir Next, PingFangSC, Unito Sans, Microsoft Yahei&quot;&gt;&lt;span style=&quot;font-size: 18px ; letter-spacing: -0.1px&quot;&gt;&lt;br&gt;&lt;/span&gt;&lt;/font&gt;&lt;/div&gt;" style="text;whiteSpace=wrap;html=1;align=center;fontColor=#393C56;sketch=1;rounded=1;" parent="1" vertex="1">
          <mxGeometry x="495" y="385" width="120" height="30" as="geometry" />
        </mxCell>
        <mxCell id="MkXuHvyHVTgwx-db9zs0-15" value="&lt;div&gt;&lt;span style=&quot;font-size: 18px ; letter-spacing: -0.1px ; font-family: &amp;#34;avenir next&amp;#34; , &amp;#34;pingfangsc&amp;#34; , &amp;#34;unito sans&amp;#34; , &amp;#34;microsoft yahei&amp;#34;&quot;&gt;阶段性深度&lt;/span&gt;&lt;br&gt;&lt;/div&gt;" style="whiteSpace=wrap;html=1;strokeWidth=2;fillWeight=4;hachureGap=8;hachureAngle=45;fillStyle=auto;fillColor=#F2CC8F;strokeColor=#E07A5F;fontColor=#393C56;sketch=1;rounded=1;" parent="1" vertex="1">
          <mxGeometry x="245" y="596.25" width="130" height="60" as="geometry" />
        </mxCell>
        <mxCell id="ctKcQ00ehMjPivleR9ZW-2" value="适用于专职作家、科学家 等" style="text;html=1;align=center;verticalAlign=middle;resizable=0;points=[];autosize=1;fontColor=#393C56;rotation=0;sketch=1;rounded=1;" parent="1" vertex="1">
          <mxGeometry x="240" y="507" width="160" height="20" as="geometry" />
        </mxCell>
        <mxCell id="ctKcQ00ehMjPivleR9ZW-4" value="适用于绝大部分上班族" style="text;html=1;align=center;verticalAlign=middle;resizable=0;points=[];autosize=1;fontColor=#393C56;rotation=0;sketch=1;rounded=1;" parent="1" vertex="1">
          <mxGeometry x="490" y="507" width="140" height="20" as="geometry" />
        </mxCell>
        <mxCell id="ctKcQ00ehMjPivleR9ZW-5" value="适用于可随时转入写作模式的群体，&lt;br&gt;如 记者、作家 等" style="text;html=1;align=center;verticalAlign=middle;resizable=0;points=[];autosize=1;fontColor=#393C56;rotation=0;sketch=1;rounded=1;" parent="1" vertex="1">
          <mxGeometry x="450" y="670" width="210" height="30" as="geometry" />
        </mxCell>
        <mxCell id="ctKcQ00ehMjPivleR9ZW-6" value="适用于企业家、老师 等" style="text;html=1;align=center;verticalAlign=middle;resizable=0;points=[];autosize=1;fontColor=#393C56;rotation=0;sketch=1;rounded=1;" parent="1" vertex="1">
          <mxGeometry x="240" y="675" width="140" height="20" as="geometry" />
        </mxCell>
        <mxCell id="ctKcQ00ehMjPivleR9ZW-7" value="&lt;div&gt;&lt;font face=&quot;Avenir Next, PingFangSC, Unito Sans, Microsoft Yahei&quot;&gt;&lt;span style=&quot;font-size: 18px ; letter-spacing: -0.1px&quot;&gt;禁欲主义哲学&lt;/span&gt;&lt;/font&gt;&lt;br&gt;&lt;/div&gt;&lt;div&gt;&lt;font face=&quot;Avenir Next, PingFangSC, Unito Sans, Microsoft Yahei&quot;&gt;&lt;span style=&quot;font-size: 18px ; letter-spacing: -0.1px&quot;&gt;&lt;br&gt;&lt;/span&gt;&lt;/font&gt;&lt;/div&gt;" style="text;whiteSpace=wrap;html=1;align=center;fontColor=#393C56;sketch=1;rounded=1;" parent="1" vertex="1">
          <mxGeometry x="250" y="385" width="120" height="30" as="geometry" />
        </mxCell>
      </root>
    </mxGraphModel>
  </diagram>
</mxfile>
